HIERARCHY
ROOT Hips
{
	OFFSET 0.00000 0.00000 0.00000
	CHANNELS 6 Xposition Yposition Zposition Zrotation Yrotation Xrotation 
	JOINT LHipJoint
	{
		OFFSET 0 0 0
		CHANNELS 3 Zrotation Yrotation Xrotation
		JOINT LeftUpLeg
		{
			OFFSET 1.59801 -1.77853 0.57028
			CHANNELS 3 Zrotation Yrotation Xrotation
			JOINT LeftLeg
			{
				OFFSET 2.39439 -6.57854 0.00000
				CHANNELS 3 Zrotation Yrotation Xrotation
				JOINT LeftFoot
				{
					OFFSET 2.69334 -7.39989 0.00000
					CHANNELS 3 Zrotation Yrotation Xrotation
					JOINT LeftToeBase
					{
						OFFSET 0.09553 -0.26245 1.73747
						CHANNELS 3 Zrotation Yrotation Xrotation
						End Site
						{
							OFFSET 0.00000 -0.00000 0.89391
						}
					}
				}
			}
		}
	}
	JOINT RHipJoint
	{
		OFFSET 0 0 0
		CHANNELS 3 Zrotation Yrotation Xrotation
		JOINT RightUpLeg
		{
			OFFSET -1.54704 -1.77852 0.57028
			CHANNELS 3 Zrotation Yrotation Xrotation
			JOINT RightLeg
			{
				OFFSET -2.40286 -6.60180 0.00000
				CHANNELS 3 Zrotation Yrotation Xrotation
				JOINT RightFoot
				{
					OFFSET -2.63873 -7.24984 0.00000
					CHANNELS 3 Zrotation Yrotation Xrotation
					JOINT RightToeBase
					{
						OFFSET -0.15631 -0.42945 1.84436
						CHANNELS 3 Zrotation Yrotation Xrotation
						End Site
						{
							OFFSET -0.00000 -0.00000 0.95734
						}
					}
				}
			}
		}
	}
	JOINT LowerBack
	{
		OFFSET 0 0 0
		CHANNELS 3 Zrotation Yrotation Xrotation
		JOINT Spine
		{
			OFFSET -0.00436 1.89866 -0.04018
			CHANNELS 3 Zrotation Yrotation Xrotation
			JOINT Spine1
			{
				OFFSET 0.02031 1.88273 0.09634
				CHANNELS 3 Zrotation Yrotation Xrotation
				JOINT Neck
				{
					OFFSET 0 0 0
					CHANNELS 3 Zrotation Yrotation Xrotation
					JOINT Neck1
					{
						OFFSET -0.13105 1.89371 0.23083
						CHANNELS 3 Zrotation Yrotation Xrotation
						JOINT Head
						{
							OFFSET 0.17062 1.83990 -0.54062
							CHANNELS 3 Zrotation Yrotation Xrotation
							End Site
							{
								OFFSET 0.04576 1.94782 -0.21839
							}
						}
					}
				}
				JOINT LeftShoulder
				{
					OFFSET 0 0 0
					CHANNELS 3 Zrotation Yrotation Xrotation
					JOINT LeftArm
					{
						OFFSET 3.12424 1.09204 0.22226
						CHANNELS 3 Zrotation Yrotation Xrotation
						JOINT LeftForeArm
						{
							OFFSET 5.29277 -0.00000 0.00000
							CHANNELS 3 Zrotation Yrotation Xrotation
							JOINT LeftHand
							{
								OFFSET 2.85226 -0.00000 0.00000
								CHANNELS 3 Zrotation Yrotation Xrotation
								JOINT LeftFingerBase
								{
									OFFSET 0 0 0
									CHANNELS 3 Zrotation Yrotation Xrotation
									JOINT LeftHandIndex1
									{
										OFFSET 0.60210 -0.00000 0.00000
										CHANNELS 3 Zrotation Yrotation Xrotation
										End Site
										{
											OFFSET 0.48543 -0.00000 0.00000
										}
									}
								}
								JOINT LThumb
								{
									OFFSET 0 0 0
									CHANNELS 3 Zrotation Yrotation Xrotation
									End Site
									{
										OFFSET 0.49284 -0.00000 0.49284
									}
								}
							}
						}
					}
				}
				JOINT RightShoulder
				{
					OFFSET 0 0 0
					CHANNELS 3 Zrotation Yrotation Xrotation
					JOINT RightArm
					{
						OFFSET -2.91709 1.01504 0.30199
						CHANNELS 3 Zrotation Yrotation Xrotation
						JOINT RightForeArm
						{
							OFFSET -5.13304 -0.00000 0.00000
							CHANNELS 3 Zrotation Yrotation Xrotation
							JOINT RightHand
							{
								OFFSET -2.74305 -0.00000 0.00000
								CHANNELS 3 Zrotation Yrotation Xrotation
								JOINT RightFingerBase
								{
									OFFSET 0 0 0
									CHANNELS 3 Zrotation Yrotation Xrotation
									JOINT RightHandIndex1
									{
										OFFSET -0.76798 -0.00000 0.00000
										CHANNELS 3 Zrotation Yrotation Xrotation
										End Site
										{
											OFFSET -0.61916 -0.00000 0.00000
										}
									}
								}
								JOINT RThumb
								{
									OFFSET 0 0 0
									CHANNELS 3 Zrotation Yrotation Xrotation
									End Site
									{
										OFFSET -0.62862 -0.00000 0.62862
									}
								}
							}
						}
					}
				}
			}
		}
	}
}
MOTION
Frames: 7
Frame Time: .0083333
0.297 17.4292 -0.0297 0 0 0 0 0 0 -21 0 0 0 0 0 0 0 0 0 0 0 0 0 0 21 0 0 0 0 0 0 0 0 0 0 0 0 0 0 0 0 0 0 0 0 0 0 -16 0 0 21 0 0 11 0 0 0 -8 0 0 0 0 0 0 0 0 0 0 0 0 0 0 0 0 0 0 0 0 8 0 0 0 0 0 0 0 0 0 0 0 0 0 0 0 0 0
0.2970 17.4292 -0.0297 -0.9030 0.9525 1.9620 0.0000 0.0000 0.0000 -20.4866 -19.4039 6.8740 0.5172 4.6094 12.7978 0.2945 9.3714 -17.5818 1.3686 -7.4041 -20.9181 0.0000 0.0000 0.0000 19.7919 10.2736 10.9206 0.0000 0.0000 -0.0000 0.1356 -9.5873 -10.9914 -2.2222 9.3142 -26.7833 -1.0222 -0.0338 -3.5816 0.1972 -0.0133 -1.6867 0.7745 -0.0008 0.2786 -17.1387 -11.9174 -8.9540 16.3747 -18.3279 24.3410 6.1983 -8.3376 12.8022 -0.0000 0.0000 0.0000 -90.5173 0.6031 30.3444 7.0741 -12.0411 -0.7470 -0.0000 -0.0000 23.0253 11.0485 23.1243 4.3851 -7.1250 0.0000 -0.0000 -18.4990 52.5379 -3.5297 -0.0000 0.0000 0.0000 90.1692 -4.4568 13.7887 -10.2368 17.1092 -1.5439 0.0000 0.0000 42.7133 -11.3803 11.7161 -2.3405 7.1250 -0.0000 -0.0000 11.0211 -18.1603 7.1711
0.2955 17.4299 -0.0268 -0.8993 0.9175 1.9554 0.0000 0.0000 0.0000 -20.4832 -19.3698 6.8648 0.5184 4.6144 12.8120 0.3143 9.2923 -17.7360 1.3110 -7.2527 -20.4662 0.0000 0.0000 0.0000 19.7984 10.2994 10.9517 0.0000 -0.0000 0.0000 0.1215 -9.5299 -11.2106 -2.0562 8.9821 -25.7394 -1.0207 -0.0076 -3.5664 0.1700 0.0217 -1.6707 0.7472 0.0164 0.2858 -17.0652 -11.8974 -9.0081 16.3841 -18.3068 24.3445 6.1922 -8.3176 12.8030 0.0000 0.0000 0.0000 -90.4420 0.6381 30.3878 7.1071 -12.0953 -0.7539 -0.0000 -0.0000 22.9854 10.9396 22.9976 4.3185 -7.1250 0.0000 -0.0000 -18.5405 52.3985 -3.4735 0.0000 0.0000 0.0000 90.2147 -4.4520 13.8273 -10.2097 17.0669 -1.5359 0.0000 0.0000 42.6303 -11.5348 11.7231 -2.3745 7.1250 -0.0000 -0.0000 10.9136 -18.1447 7.1023
0.2955 17.4289 -0.0252 -0.8512 0.9049 1.9444 0.0000 0.0000 0.0000 -20.5403 -19.3461 6.8986 0.5144 4.5971 12.7628 0.3074 9.3682 -17.7350 1.3198 -7.2760 -20.5357 0.0000 0.0000 0.0000 19.7445 10.2988 10.9848 0.0000 0.0000 -0.0000 0.1155 -9.4687 -11.2378 -2.0538 8.9773 -25.7244 -1.0972 -0.0168 -3.5640 0.1855 0.0118 -1.6488 0.8056 0.0117 0.3070 -17.0718 -11.8895 -9.0638 16.3327 -18.2716 24.3631 6.1776 -8.3036 12.8088 0.0000 0.0000 0.0000 -90.4834 0.6167 30.3553 7.1020 -12.0871 -0.7529 -0.0000 -0.0000 23.0549 10.8598 23.0630 4.2978 -7.1250 0.0000 -0.0000 -18.6502 52.4469 -3.5179 0.0000 0.0000 0.0000 90.1869 -4.4338 13.7901 -10.1991 17.0504 -1.5328 0.0000 0.0000 42.7627 -11.6183 11.7420 -2.3959 7.1250 -0.0000 -0.0000 10.8550 -18.1213 7.0685
0.2955 17.4303 -0.0238 -0.8547 0.8934 1.9439 0.0000 0.0000 0.0000 -20.5373 -19.3295 6.9100 0.5126 4.5892 12.7404 0.2915 9.5033 -17.6880 1.4064 -7.5013 -21.2091 0.0000 0.0000 0.0000 19.7572 10.3029 11.0074 0.0000 0.0000 -0.0000 0.1193 -9.4922 -11.1937 -2.0491 8.9677 -25.6944 -1.0876 -0.0058 -3.5731 0.1859 0.0263 -1.6202 0.8011 0.0186 0.3412 -17.1106 -11.8767 -9.1001 16.3961 -18.2515 24.3249 6.2104 -8.2906 12.8092 0.0000 0.0000 0.0000 -90.4988 0.5400 30.3756 7.0930 -12.0723 -0.7510 -0.0000 -0.0000 23.2353 10.5510 23.2758 4.2095 -7.1250 0.0000 -0.0000 -19.0560 52.5957 -3.6699 0.0000 0.0000 0.0000 90.1987 -4.4151 13.7890 -10.2259 17.0922 -1.5407 0.0000 0.0000 42.8766 -11.5928 11.7266 -2.3874 7.1250 -0.0000 -0.0000 10.8732 -18.1381 7.0767
0.2972 17.4328 -0.0219 -0.9077 0.8949 1.9503 0.0000 0.0000 0.0000 -20.4820 -19.3195 6.9360 0.5077 4.5675 12.6789 0.2910 9.4912 -17.6690 1.3813 -7.4368 -21.0162 0.0000 0.0000 0.0000 19.8124 10.3022 11.0100 0.0000 -0.0000 0.0000 0.1212 -9.5079 -11.1791 -1.9861 8.8371 -25.2869 -0.9906 -0.0005 -3.5792 0.1724 0.0305 -1.5986 0.7331 0.0200 0.3667 -17.0980 -11.8651 -9.1225 16.4764 -18.2510 24.2854 6.2384 -8.2812 12.8067 -0.0000 -0.0000 0.0000 -90.4313 0.4964 30.3832 7.1283 -12.1302 -0.7584 -0.0000 -0.0000 23.3342 10.1872 23.3520 4.0742 -7.1250 0.0000 -0.0000 -19.4459 52.6049 -3.7542 -0.0000 -0.0000 0.0000 90.2297 -4.3851 13.8485 -10.2673 17.1566 -1.5529 0.0000 0.0000 42.8295 -11.3879 11.6618 -2.3314 7.1250 -0.0000 -0.0000 11.0177 -18.2141 7.1555
0.2980 17.4332 -0.0215 -0.9089 0.8817 1.9605 0.0000 0.0000 0.0000 -20.4800 -19.3079 6.9294 0.5059 4.5594 12.6559 0.2928 9.4788 -17.6779 1.3941 -7.4698 -21.1149 0.0000 0.0000 0.0000 19.8096 10.3208 10.9970 0.0000 -0.0000 0.0000 0.1207 -9.5125 -11.1985 -1.9779 8.8199 -25.2335 -0.9855 -0.0020 -3.5384 0.1880 0.0278 -1.6087 0.7460 0.0189 0.3336 -17.1384 -11.8728 -9.1540 16.4569 -18.2512 24.3270 6.2369 -8.2841 12.8324 -0.0000 -0.0000 0.0000 -90.3818 0.5212 30.3656 7.1837 -12.2211 -0.7700 -0.0000 -0.0000 23.3021 9.9718 23.2617 3.9721 -7.1250 0.0000 -0.0000 -19.6065 52.4825 -3.7271 -0.0000 -0.0000 0.0000 90.1926 -4.3775 13.9216 -10.2989 17.2058 -1.5622 0.0000 0.0000 42.6093 -11.1054 11.5956 -2.2594 7.1250 -0.0000 -0.0000 11.2162 -18.2954 7.2689
